<?xml version="1.0" encoding="UTF-8" standalone="no"?>
<svg
   xmlns:osb="http://www.openswatchbook.org/uri/2009/osb"
   xmlns:dc="http://purl.org/dc/elements/1.1/"
   xmlns:cc="http://creativecommons.org/ns#"
   xmlns:rdf="http://www.w3.org/1999/02/22-rdf-syntax-ns#"
   xmlns:svg="http://www.w3.org/2000/svg"
   xmlns="http://www.w3.org/2000/svg"
   xmlns:sodipodi="http://sodipodi.sourceforge.net/DTD/sodipodi-0.dtd"
   xmlns:inkscape="http://www.inkscape.org/namespaces/inkscape"
   sodipodi:docname="footer.svg"
   inkscape:version="1.0 (4035a4fb49, 2020-05-01)"
   id="svg246"
   version="1.1"
   viewBox="0 0 220.61366 75.973396"
   height="75.973396mm"
   width="220.61366mm">
  <defs
     id="defs240">
    <clipPath
       id="clipPath5847"
       clipPathUnits="userSpaceOnUse">
      <rect
         y="203.46223"
         x="0"
         height="95.843269"
         width="233.18568"
         id="rect5849"
         style="opacity:1;fill:#1a1a1a;fill-opacity:1;stroke:none;stroke-width:0.264583;stroke-opacity:0.392157" />
    </clipPath>
    <clipPath
       id="clipPath5843"
       clipPathUnits="userSpaceOnUse">
      <rect
         y="203.46223"
         x="0"
         height="95.843269"
         width="233.18568"
         id="rect5845"
         style="opacity:1;fill:#1a1a1a;fill-opacity:1;stroke:none;stroke-width:0.264583;stroke-opacity:0.392157" />
    </clipPath>
    <clipPath
       id="clipPath5839"
       clipPathUnits="userSpaceOnUse">
      <rect
         y="203.46223"
         x="0"
         height="95.843269"
         width="233.18568"
         id="rect5841"
         style="opacity:1;fill:#1a1a1a;fill-opacity:1;stroke:none;stroke-width:0.264583;stroke-opacity:0.392157" />
    </clipPath>
    <clipPath
       id="clipPath5835"
       clipPathUnits="userSpaceOnUse">
      <rect
         y="203.46223"
         x="0"
         height="95.843269"
         width="233.18568"
         id="rect5837"
         style="opacity:1;fill:#1a1a1a;fill-opacity:1;stroke:none;stroke-width:0.264583;stroke-opacity:0.392157" />
    </clipPath>
    <clipPath
       id="clipPath5831"
       clipPathUnits="userSpaceOnUse">
      <rect
         y="203.46223"
         x="0"
         height="95.843269"
         width="233.18568"
         id="rect5833"
         style="opacity:1;fill:#1a1a1a;fill-opacity:1;stroke:none;stroke-width:0.264583;stroke-opacity:0.392157" />
    </clipPath>
    <clipPath
       id="clipPath5827"
       clipPathUnits="userSpaceOnUse">
      <rect
         y="203.46223"
         x="0"
         height="95.843269"
         width="233.18568"
         id="rect5829"
         style="opacity:1;fill:#1a1a1a;fill-opacity:1;stroke:none;stroke-width:0.264583;stroke-opacity:0.392157" />
    </clipPath>
    <clipPath
       id="clipPath5851"
       clipPathUnits="userSpaceOnUse">
      <rect
         y="203.46223"
         x="0"
         height="95.843269"
         width="233.18568"
         id="rect5853"
         style="opacity:1;fill:#1a1a1a;fill-opacity:1;stroke:none;stroke-width:0.264583;stroke-opacity:0.392157" />
    </clipPath>
    <linearGradient
       gradientTransform="matrix(0.01852198,-0.00728607,-4.3516131e-6,0.01852369,121.19121,105.64805)"
       osb:paint="solid"
       id="linearGradient1143">
      <stop
         id="stop1141"
         offset="0"
         style="stop-color:#169740;stop-opacity:1;" />
    </linearGradient>
    <clipPath
       id="clipPath5859"
       clipPathUnits="userSpaceOnUse">
      <rect
         y="203.46223"
         x="0"
         height="95.843269"
         width="233.18568"
         id="rect5861"
         style="opacity:1;fill:#1a1a1a;fill-opacity:1;stroke:none;stroke-width:0.264583;stroke-opacity:0.392157" />
    </clipPath>
  </defs>
  <sodipodi:namedview
     inkscape:window-maximized="1"
     inkscape:window-y="-8"
     inkscape:window-x="-8"
     inkscape:window-height="705"
     inkscape:window-width="1366"
     showgrid="false"
     inkscape:document-rotation="0"
     inkscape:current-layer="layer1"
     inkscape:document-units="mm"
     inkscape:cy="441.33412"
     inkscape:cx="834.78755"
     inkscape:zoom="0.33557348"
     inkscape:pageshadow="2"
     inkscape:pageopacity="0.0"
     borderopacity="1.0"
     bordercolor="#666666"
     pagecolor="#ffffff"
     id="base" />
  <metadata
     id="metadata243">
    <rdf:RDF>
      <cc:Work
         rdf:about="">
        <dc:format>image/svg+xml</dc:format>
        <dc:type
           rdf:resource="http://purl.org/dc/dcmitype/StillImage" />
        <dc:title></dc:title>
      </cc:Work>
    </rdf:RDF>
  </metadata>
  <g
     transform="translate(115.03754,-31.397014)"
     id="layer1"
     inkscape:groupmode="layer"
     inkscape:label="Capa 1">
    <path
       transform="translate(-115.03754,-191.61034)"
       clip-path="url(#clipPath5859)"
       inkscape:connector-curvature="0"
       id="path8749"
       d="m -0.0598078,283.10563 0.23861855,-15.87524 1.83491405,-0.48058 c 1.6482334,-0.43169 1.89585,-0.7596 2.4338522,-3.22282 0.3291684,-1.50824 0.931011,-3.12368 1.3368904,-3.58986 1.8812142,-2.16062 12.0488126,-6.15722 15.6643116,-6.15722 3.341913,0 11.02002,-1.62641 17.411808,-3.68824 9.363528,-3.02043 8.596133,-2.97885 14.243705,-0.77173 l 4.781654,1.8687 5.902707,-0.0932 c 5.102906,-0.0805 6.34919,-0.20174 9.198603,-0.89494 1.812761,-0.44102 4.920326,-1.57059 6.905644,-2.51018 4.987127,-2.36018 10.435205,-4.48383 11.503009,-4.48383 3.418907,0 12.543131,-2.46054 16.014321,-4.31862 1.40204,-0.75048 3.80105,-1.77797 5.3311,-2.28327 2.24957,-0.74293 3.0324,-0.86464 4.09063,-0.63602 0.71973,0.15547 3.91699,1.75843 7.10503,3.56207 3.18803,1.80364 7.12644,3.78547 8.752,4.40407 1.70319,0.64814 3.20774,1.5418 3.55064,2.109 1.0945,1.81052 6.57817,3.1894 11.42738,2.87343 2.75447,-0.1794 5.17979,-0.9738 10.61289,-3.47582 5.38969,-2.48203 4.9443,-2.46043 10.38981,-0.50414 3.01867,1.08441 7.4146,2.25418 11.973,3.18598 3.9617,0.80983 8.53043,1.93805 10.15274,2.50719 1.62227,0.56914 3.45974,1.03479 4.08324,1.03479 3.26309,0 9.89582,4.37306 13.29674,8.76675 1.7081,2.20666 2.95944,3.21435 5.75919,4.63754 6.27977,3.19223 6.0584,2.52777 6.38747,19.17476 l 0.29158,14.73655 H 110.15765 -0.29831245 Z"
       style="opacity:1;fill:url(#linearGradient1143);fill-opacity:1;stroke:none;stroke-width:0.448519;stroke-opacity:0.658291" />
    <path
       transform="translate(-115.03754,-191.61034)"
       clip-path="url(#clipPath5851)"
       inkscape:connector-curvature="0"
       id="path10018-8"
       d="m 11.049247,273.60564 c 0.72817,-0.37727 0.86538,-0.61722 0.82468,-1.44203 -0.0268,-0.54418 -0.16224,-1.14577 -0.30089,-1.33685 -0.45093,-0.62148 -1.48606,-0.56957 -1.7396999,0.0873 -0.28755,0.74466 -0.73668,0.60806 -1.44286,-0.43885 -1.07097,-1.58769 -1.99463,-5.16256 -2.23802,-8.66232 -0.55422,-7.96764 -0.50597,-13.75949 0.16419,-19.70696 0.59917,-5.31741 0.72239,-5.93848 1.24539,-6.27625 1.43956,-0.92977 1.73967,-1.50791 1.96888,-3.79296 0.19544,-1.94838 0.14466,-2.41731 -0.39981,-3.69193 -0.39708,-0.9296 -0.53843,-1.60695 -0.38908,-1.86431 0.28887,-0.49773 -0.27753,-2.33906 -0.85569,-2.78183 -0.23348,-0.1788 -0.88248,-0.44316 -1.44222,-0.58746 -0.77346,-0.19942 -1.14306,-0.12196 -1.53994,0.32274 -0.48771,0.54653 -0.48972,0.65896 -0.0302,1.70219 0.43555,0.98874 0.44098,1.20236 0.0472,1.86011 -0.63457,1.06014 -1.30271,0.6826 -1.25172,-0.70727 0.0734,-2.0005 -0.0415,-2.31095 -0.92337,-2.49577 -1.21734,-0.25511 -1.58242,0.0295 -1.88704999,1.47151 -0.23417,1.10825 -0.18745,1.54368 0.27423999,2.55751 0.52404,1.15074 0.64203,1.26205 2.02637,1.91223 1.33815,0.62842 1.47894,0.75391 1.57064,1.39947 0.0554,0.39001 0.14109,0.92068 0.19043,1.17927 0.097,0.50864 -0.65144,0.34694 -0.91412,-0.19748 -0.28379,-0.58812 -1.70245,-0.97221 -2.43319,-0.65878 -0.60240999,0.25839 -0.71192999,0.49281 -0.68691999,1.47034 0.0527,2.06009 1.58097999,3.39841 2.40421999,2.10539 0.22718,-0.35681 0.57252,-0.50505 0.87828,-0.37697 0.46425,0.19445 0.46929,0.66789 0.0641,6.02138 -1.03883,13.72531 -0.99212,16.6547 0.40558,25.43636 0.64995,4.08358 1.78289,6.05475 4.17107,7.25713 1.2723699,0.6406 1.4257699,0.65671 2.2394299,0.23513 z m -3.7560999,-2.012 c -0.36351,-0.40283 -0.85505,-1.1557 -1.0923,-1.67303 -1.03198,-2.25018 -2.0235,-11.58051 -1.79302,-16.87241 0.1328,-3.04909 0.57862,-3.14396 0.58696,-0.12505 0.003,0.95282 0.0348,2.57924 0.0714,3.61426 0.0366,1.03502 0.0858,2.44613 0.10942,3.1358 0.17168,5.023 0.73813,8.16667 1.84674,10.24901 1.28569,2.41497 3.0886299,3.33188 3.4630499,1.76119 0.20506,-0.86033 0.81175,-0.56715 0.84304,0.40739 0.0329,1.02457 -1.3369799,1.44296 -2.4887799,0.76016 -0.48713,-0.28878 -1.1831,-0.85465 -1.54662,-1.25748 z m -2.32409,-30.05219 c 0.21795,-2.27296 0.45955,-3.63907 0.63092,-3.56728 0.16952,0.071 0.12356,1.54427 -0.11802,3.78211 -0.21762,2.0162 -0.50154,3.62147 -0.63089,3.56729 -0.12938,-0.0542 -0.0763,-1.75613 0.11799,-3.78212 z m 0.55073,-4.95229 c 0.1605,-0.62346 0.13456,-1.29639 -0.0693,-1.79684 -0.1857,-0.45655 -0.21829,-0.97777 -0.0753,-1.2139 0.49266,-0.81355 0.2273,-3.16668 -0.43055,-3.81806 -0.15661,-0.15511 -0.77126,-0.42945 -1.3659,-0.60977 -0.90964,-0.27579 -1.14153,-0.44639 -1.46181,-1.07526 -0.4925,-0.96704 -0.56375,-2.81862 -0.12498,-3.2473 0.59115,-0.57756 0.89353,-0.14968 0.76111,1.07699 -0.13964,1.29356 0.43392,2.40651 1.46213,2.83719 1.08919,0.45623 2.42825,-1.91658 1.85356,-3.2845 -0.44311,-1.05475 -0.12104,-1.53901 0.82289,-1.23717 0.58082,0.18573 0.76757,0.33506 0.64882,0.51897 -0.0917,0.14199 -0.43673,0.11855 -0.76665,-0.052 -0.8788,-0.45433 -0.7951,0.19096 0.1144,0.88214 0.66948,0.50877 0.75025,0.68624 0.57413,1.26148 -0.16472,0.53794 -0.0694,0.80864 0.48551,1.37833 1.696,1.7413 0.99097,6.05569 -1.09207,6.68281 -0.36504,0.10986 -0.68479,0.48124 -0.72353,0.84023 -0.0873,0.80913 -0.53645,1.99266 -0.72602,1.91325 -0.0787,-0.033 -0.0276,-0.50844 0.11359,-1.05664 z m -3.54476,-3.47639 c 0.0689,-0.63862 0.94527,-0.78298 1.48838,-0.24521 0.27414,0.27144 0.21027,0.35637 -0.27784,0.36946 -0.34872,0.009 -0.65708,0.23234 -0.68547,0.49563 -0.0284,0.26325 -0.172,0.35949 -0.31908,0.21387 -0.14711,-0.14561 -0.23981,-0.52084 -0.206,-0.83378 z"
       style="fill:#afd7e1;fill-opacity:1;stroke-width:0.264583" />
    <path
       transform="translate(-115.03754,-191.61034)"
       clip-path="url(#clipPath5847)"
       inkscape:connector-curvature="0"
       id="path10146"
       d="m 6.4107707,296.79435 c -1.63846,-0.233 -3.27109,-0.95065 -3.9351,-1.72973 -0.23024,-0.27015 -0.69091,-1.14155 -1.02371,-1.93644 -1.53588001,-3.66843 0.30251,-8.0734 4.36233,-10.45261 1.00085,-0.58654 1.54351,-0.71153 3.16203,-0.72829 1.6308203,-0.0169 2.2054703,0.10287 3.4758703,0.72441 1.86901,0.91442 4.82849,3.79862 6.51114,6.3455 1.23053,1.86255 2.30353,3.00591 3.77743,4.02514 1.0576,0.73135 3.94903,1.66485 5.13422,1.65759 1.497161,-0.009 3.06808,-0.86835 3.90755,-2.13715 0.637331,-0.96329 0.743,-1.3834 0.730559,-2.9047 -0.01249,-1.52943 -0.1187,-1.91509 -0.758248,-2.75358 -1.168601,-1.53212 -2.16368,-2.03542 -3.787172,-1.9155 -1.559099,0.11517 -2.322119,0.63942 -2.892479,1.98735 -0.27972,0.66106 -0.30276,1.11169 -0.0961,1.87929 0.61908,2.29909 2.30431,3.04316 4.4197,1.95142 1.217361,-0.62828 1.527379,-1.45801 0.79502,-2.12776 -0.80726,-0.73824 -1.777561,-0.99734 -2.060811,-0.55031 -0.33433,0.52764 -0.285628,0.75592 0.161272,0.75592 0.218279,0 0.39687,0.16401 0.39687,0.36448 0,0.59268 -0.734571,1.03065 -1.434131,0.85507 -1.77695,-0.44598 -0.46695,-3.27263 1.5711,-3.39007 1.048901,-0.0604 2.51337,0.79756 2.88993,1.69314 0.519761,1.23613 0.0387,2.2477 -1.58754,3.33832 -1.160041,0.77798 -1.47122,0.86586 -2.76644,0.78135 -2.45016,-0.15986 -3.96896,-1.67853 -3.96023,-3.95988 0.0124,-3.23032 3.7728,-5.57887 7.08435,-4.42445 0.44972,0.15677 1.34629,0.92716 1.992389,1.71197 0.956832,1.16225 1.208112,1.69414 1.35472,2.86753 0.342881,2.74431 -0.838899,5.02172 -3.30027,6.35998 -1.15076,0.62567 -1.713269,0.76547 -2.94368,0.73156 -1.802329,-0.0497 -4.435199,-0.90006 -5.911659,-1.9094 -1.31197,-0.89689 -3.40447,-3.18084 -4.6302,-5.05385 -1.66989,-2.55171 -4.6883,-5.11191 -6.53107,-5.53963 -2.5925603,-0.60176 -4.2253603,-0.16177 -5.9479103,1.60277 -2.19136,2.24477 -2.90004,5.34391 -1.80441,7.89078 0.32815,0.76282 0.94248,1.6332 1.36518,1.93418 0.87622,0.62393 3.73893,1.19513 4.73577,0.94494 1.02197,-0.2565 2.5554503,-1.53644 3.0454003,-2.5419 0.90052,-1.84799 -0.15234,-5.15076 -2.0702003,-6.49407 -2.00766,-1.40623 -5.05929,0.75963 -5.0848,3.60887 -0.009,1.01296 0.12778,1.38434 0.74899,2.03275 1.53591,1.60314 4.19714,1.24949 4.5448503,-0.60397 0.42222,-2.25063 -1.4350003,-3.94637 -2.9898203,-2.72986 -0.50269,0.3933 -0.39551,1.45211 0.20808,2.05571 0.65798,0.65797 1.14885,0.42543 0.93133,-0.4412 -0.19174,-0.76398 0.43884,-1.12853 1.06014,-0.61289 0.9634603,0.7996 -0.44706,2.90891 -1.68292,2.51666 -1.23258,-0.3912 -1.9057,-1.20451 -1.9057,-2.30257 0,-1.39603 0.38136,-2.04531 1.46801,-2.49934 1.50805,-0.63011 2.21506,-0.48279 3.3354603,0.69499 0.83142,0.87401 1.01737,1.26243 1.01737,2.12517 0,1.68233 -0.60175,2.78207 -1.8787303,3.43354 -3.39937,1.73422 -7.14369,-1.29119 -6.15659,-4.97453 0.0877,-0.32743 0.32424,-0.59532 0.52555,-0.59532 0.20131,0 0.36602,-0.22189 0.36602,-0.49308 0,-0.68767 1.23965,-1.86957 2.59747,-2.47646 1.56499,-0.69948 2.9575,-0.44427 4.3270603,0.79305 2.04406,1.84668 2.82989,3.99109 2.3251,6.34483 -0.33077,1.54234 -1.54971,2.93516 -3.27009,3.73657 -1.4848103,0.69167 -2.1604203,0.78369 -3.9182803,0.53371 z"
       style="fill:#afd7e1;fill-opacity:1;stroke-width:0.264583" />
    <path
       transform="translate(-112.12301,-191.61034)"
       clip-path="url(#clipPath5843)"
       sodipodi:nodetypes="ccsccccscccccsccccsscccccccccccsccccccccccscccccsccsccsscccccc"
       inkscape:transform-center-y="3.0266667"
       inkscape:transform-center-x="-6.4316668"
       inkscape:connector-curvature="0"
       id="path10146-1"
       d="m 40.460772,297.92936 c -1.63846,-0.233 -3.27109,-0.95065 -3.9351,-1.72973 -0.23024,-0.27015 -0.69091,-1.14155 -1.02371,-1.93644 -1.535881,-3.66843 0.30251,-8.0734 4.36233,-10.45261 1.00085,-0.58654 1.54351,-0.71153 3.16203,-0.72829 1.63082,-0.0169 2.20547,0.10287 3.47587,0.72441 1.86901,0.91442 4.82849,3.79862 6.51114,6.3455 1.23053,1.86255 2.30353,3.00591 3.77743,4.02514 1.0576,0.73135 3.94903,1.66485 5.13422,1.65759 1.497161,-0.009 3.06808,-0.86835 3.90755,-2.13715 0.637331,-0.96329 0.743,-1.3834 0.730559,-2.9047 -0.01249,-1.52943 -0.1187,-1.91509 -0.758248,-2.75358 -1.168601,-1.53212 -2.16368,-2.03542 -3.787172,-1.9155 -1.559099,0.11517 -2.322119,0.63942 -2.892479,1.98735 -0.27972,0.66106 -0.30276,1.11169 -0.0961,1.87929 0.61908,2.29909 2.30431,3.04316 4.4197,1.95142 1.217361,-0.62828 1.527379,-1.45801 0.79502,-2.12776 -0.80726,-0.73824 -1.777561,-0.99734 -2.060811,-0.55031 -0.33433,0.52764 -0.285628,0.75592 0.161272,0.75592 0.218279,0 0.39687,0.16401 0.39687,0.36448 0,0.59268 -0.734571,1.03065 -1.434131,0.85507 -1.77695,-0.44598 -0.46695,-3.27263 1.5711,-3.39007 1.048901,-0.0604 2.51337,0.79756 2.88993,1.69314 0.519761,1.23613 0.0387,2.2477 -1.58754,3.33832 -1.160041,0.77798 -1.47122,0.86586 -2.76644,0.78135 -2.45016,-0.15986 -3.96896,-1.67853 -3.96023,-3.95988 0.0124,-3.23032 3.7728,-5.57887 7.08435,-4.42445 0.44972,0.15677 1.34629,0.92716 1.992389,1.71197 0.956832,1.16225 1.208112,1.69414 1.35472,2.86753 0.342881,2.74431 -0.838899,5.02172 -3.30027,6.35998 -1.15076,0.62567 -1.713269,0.76547 -2.94368,0.73156 -1.802329,-0.0497 -4.435199,-0.90006 -5.911659,-1.9094 -1.31197,-0.89689 -3.40447,-3.18084 -4.6302,-5.05385 -1.66989,-2.55171 -4.6883,-5.11191 -6.53107,-5.53963 -2.59256,-0.60176 -4.22536,-0.16177 -5.94791,1.60277 -2.19136,2.24477 -2.90004,5.34391 -1.80441,7.89078 0.32815,0.76282 0.942479,1.6332 1.36518,1.93418 0.87622,0.62393 3.73893,1.19513 4.73577,0.94494 1.02197,-0.2565 2.55545,-1.53644 3.0454,-2.5419 0.90052,-1.84799 -0.15234,-5.15076 -2.0702,-6.49407 -2.00766,-1.40623 -5.05929,0.75963 -5.084801,3.60887 -0.009,1.01296 0.127781,1.38434 0.748991,2.03275 1.53591,1.60314 4.19714,1.24949 4.54485,-0.60397 0.42222,-2.25063 -1.435,-3.94637 -2.98982,-2.72986 -0.50269,0.3933 -0.39551,1.45211 0.20808,2.05571 0.65798,0.65797 1.14885,0.42543 0.93133,-0.4412 -0.19174,-0.76398 0.43884,-1.12853 1.06014,-0.61289 0.96346,0.7996 -0.44706,2.90891 -1.68292,2.51666 -1.23258,-0.3912 -1.9057,-1.20451 -1.9057,-2.30257 0,-1.39603 0.38136,-2.04531 1.46801,-2.49934 1.50805,-0.63011 -0.05494,-3.88779 1.06546,-2.71001 0.83142,0.87401 3.28737,4.66743 3.28737,5.53017 0,1.68233 -0.60175,2.78207 -1.87873,3.43354 -3.39937,1.73422 -7.14369,-1.29119 -6.15659,-4.97453 0.0877,-0.32743 0.32424,-0.59532 0.52555,-0.59532 0.201309,0 0.366019,-0.22189 0.366019,-0.49308 0,-0.68767 1.239651,-1.86957 2.597471,-2.47646 1.56499,-0.69948 2.9575,-0.44427 4.32706,0.79305 2.04406,1.84668 2.82989,3.99109 2.3251,6.34483 -0.33077,1.54234 -1.54971,2.93516 -3.27009,3.73657 -1.48481,0.69167 -2.16042,0.78369 -3.918281,0.53371 z"
       style="fill:#afd7e1;fill-opacity:1;stroke-width:0.264583" />
    <path
       transform="translate(-114.9545,-191.61034)"
       clip-path="url(#clipPath5839)"
       inkscape:connector-curvature="0"
       id="path10146-4"
       d="m 80.256789,297.83141 c -1.638461,-0.233 -3.271091,-0.95065 -3.935101,-1.72973 -0.23024,-0.27015 -0.69091,-1.14155 -1.02371,-1.93644 -1.53588,-3.66843 0.30251,-8.0734 4.36233,-10.45261 1.00085,-0.58654 1.543511,-0.71153 3.162031,-0.72829 1.63082,-0.0169 2.20547,0.10287 3.47587,0.72441 1.86901,0.91442 4.82849,3.79862 6.51114,6.3455 1.23053,1.86255 2.30353,3.00591 3.77743,4.02514 1.0576,0.73135 3.949031,1.66485 5.134221,1.65759 1.49716,-0.009 3.06809,-0.86835 3.90756,-2.13715 0.63733,-0.96329 0.743,-1.3834 0.73055,-2.9047 -0.0125,-1.52943 -0.1187,-1.91509 -0.75824,-2.75358 -1.16861,-1.53212 -2.16369,-2.03542 -3.78718,-1.9155 -1.5591,0.11517 -2.322121,0.63942 -2.892481,1.98735 -0.27972,0.66106 -0.30276,1.11169 -0.0961,1.87929 0.61908,2.29909 2.304311,3.04316 4.419701,1.95142 1.21736,-0.62828 1.52738,-1.45801 0.79502,-2.12776 -0.80726,-0.73824 -1.77756,-0.99734 -2.06081,-0.55031 -0.33433,0.52764 -0.28563,0.75592 0.16127,0.75592 0.21828,0 0.39687,0.16401 0.39687,0.36448 0,0.59268 -0.73457,1.03065 -1.43413,0.85507 -1.776951,-0.44598 -0.46695,-3.27263 1.5711,-3.39007 1.0489,-0.0604 2.51338,0.79756 2.88994,1.69314 0.51976,1.23613 0.0387,2.2477 -1.58755,3.33832 -1.16004,0.77798 -1.47122,0.86586 -2.76644,0.78135 -2.450161,-0.15986 -3.968961,-1.67853 -3.960231,-3.95988 0.0124,-3.23032 3.772801,-5.57887 7.084351,-4.42445 0.44973,0.15677 1.3463,0.92716 1.99239,1.71197 0.95684,1.16225 1.20812,1.69414 1.35472,2.86753 0.34289,2.74431 -0.83889,5.02172 -3.30028,6.35998 -1.15075,0.62567 -1.71326,0.76547 -2.94367,0.73156 -1.802331,-0.0497 -4.435201,-0.90006 -5.911661,-1.9094 -1.31197,-0.89689 -3.40447,-3.18084 -4.6302,-5.05385 -1.66989,-2.55171 -4.6883,-5.11191 -6.53107,-5.53963 -2.59256,-0.60176 -4.22536,-0.16177 -5.94791,1.60277 -2.191361,2.24477 -2.900041,5.34391 -1.804411,7.89078 0.32815,0.76282 0.94248,1.6332 1.365181,1.93418 0.876219,0.62393 3.73893,1.19513 4.73577,0.94494 1.02197,-0.2565 2.55545,-1.53644 3.0454,-2.5419 0.90052,-1.84799 -0.15234,-5.15076 -2.070201,-6.49407 -2.007659,-1.40623 -5.05929,0.75963 -5.0848,3.60887 -0.009,1.01296 0.127781,1.38434 0.748991,2.03275 1.535909,1.60314 4.197139,1.24949 4.54485,-0.60397 0.42222,-2.25063 -1.435,-3.94637 -2.98982,-2.72986 -0.50269,0.3933 -0.39551,1.45211 0.20808,2.05571 0.657979,0.65797 1.14885,0.42543 0.931329,-0.4412 -0.191739,-0.76398 0.438841,-1.12853 1.060141,-0.61289 0.96346,0.7996 -0.44706,2.90891 -1.68292,2.51666 -1.23258,-0.3912 -1.905701,-1.20451 -1.905701,-2.30257 0,-1.39603 0.381361,-2.04531 1.468011,-2.49934 1.508049,-0.63011 2.21506,-0.48279 3.33546,0.69499 0.83142,0.87401 1.01737,1.26243 1.01737,2.12517 0,1.68233 -0.60175,2.78207 -1.87873,3.43354 -3.399371,1.73422 -7.143691,-1.29119 -6.156591,-4.97453 0.0877,-0.32743 0.32424,-0.59532 0.525551,-0.59532 0.201309,0 0.366019,-0.22189 0.366019,-0.49308 0,-0.68767 1.239651,-1.86957 2.597471,-2.47646 1.56499,-0.69948 2.9575,-0.44427 4.32706,0.79305 2.04406,1.84668 2.82989,3.99109 2.3251,6.34483 -0.33077,1.54234 -1.54971,2.93516 -3.27009,3.73657 -1.484811,0.69167 -2.16042,0.78369 -3.918281,0.53371 z"
       style="fill:#afd7e1;fill-opacity:1;stroke-width:0.264583" />
    <path
       transform="translate(-114.48352,-191.61034)"
       clip-path="url(#clipPath5835)"
       inkscape:connector-curvature="0"
       id="path10146-9"
       d="m 116.75034,297.01297 c -1.63846,-0.233 -3.27109,-0.95065 -3.9351,-1.72973 -0.23024,-0.27015 -0.69091,-1.14155 -1.02371,-1.93644 -1.53588,-3.66843 0.30251,-8.0734 4.36233,-10.45261 1.00085,-0.58654 1.54351,-0.71153 3.16203,-0.72829 1.63082,-0.0169 2.20547,0.10287 3.47587,0.72441 1.86901,0.91442 4.82849,3.79862 6.51114,6.3455 1.23053,1.86255 2.30353,3.00591 3.77743,4.02514 1.0576,0.73135 3.94903,1.66485 5.13422,1.65759 1.49716,-0.009 3.06808,-0.86835 3.90755,-2.13715 0.63733,-0.96329 0.743,-1.3834 0.73056,-2.9047 -0.0125,-1.52943 -0.1187,-1.91509 -0.75825,-2.75358 -1.1686,-1.53212 -2.16368,-2.03542 -3.78717,-1.9155 -1.5591,0.11517 -2.32212,0.63942 -2.89248,1.98735 -0.27972,0.66106 -0.30276,1.11169 -0.0961,1.87929 0.61908,2.29909 2.30431,3.04316 4.4197,1.95142 1.21736,-0.62828 1.52738,-1.45801 0.79502,-2.12776 -0.80726,-0.73824 -1.77756,-0.99734 -2.06081,-0.55031 -0.33433,0.52764 -0.28563,0.75592 0.16127,0.75592 0.21828,0 0.39687,0.16401 0.39687,0.36448 0,0.59268 -0.73457,1.03065 -1.43413,0.85507 -1.77695,-0.44598 -0.46695,-3.27263 1.5711,-3.39007 1.0489,-0.0604 2.51337,0.79756 2.88993,1.69314 0.51976,1.23613 0.0387,2.2477 -1.58754,3.33832 -1.16004,0.77798 -1.47122,0.86586 -2.76644,0.78135 -2.45016,-0.15986 -3.96896,-1.67853 -3.96023,-3.95988 0.0124,-3.23032 3.7728,-5.57887 7.08435,-4.42445 0.44972,0.15677 1.34629,0.92716 1.99239,1.71197 0.95683,1.16225 1.20811,1.69414 1.35472,2.86753 0.34288,2.74431 -0.8389,5.02172 -3.30027,6.35998 -1.15076,0.62567 -1.71327,0.76547 -2.94368,0.73156 -1.80233,-0.0497 -4.4352,-0.90006 -5.91166,-1.9094 -1.31197,-0.89689 -3.40447,-3.18084 -4.6302,-5.05385 -1.66989,-2.55171 -4.6883,-5.11191 -6.53107,-5.53963 -2.59256,-0.60176 -4.22536,-0.16177 -5.94791,1.60277 -2.19136,2.24477 -2.90004,5.34391 -1.80441,7.89078 0.32815,0.76282 0.94248,1.6332 1.36518,1.93418 0.87622,0.62393 3.73893,1.19513 4.73577,0.94494 1.02197,-0.2565 2.55545,-1.53644 3.0454,-2.5419 0.90052,-1.84799 -0.15234,-5.15076 -2.0702,-6.49407 -2.00766,-1.40623 -5.05929,0.75963 -5.0848,3.60887 -0.009,1.01296 0.12778,1.38434 0.74899,2.03275 1.53591,1.60314 4.19714,1.24949 4.54485,-0.60397 0.42222,-2.25063 -1.435,-3.94637 -2.98982,-2.72986 -0.50269,0.3933 -0.39551,1.45211 0.20808,2.05571 0.65798,0.65797 1.14885,0.42543 0.93133,-0.4412 -0.19174,-0.76398 0.43884,-1.12853 1.06014,-0.61289 0.96346,0.7996 -0.44706,2.90891 -1.68292,2.51666 -1.23258,-0.3912 -1.9057,-1.20451 -1.9057,-2.30257 0,-1.39603 0.38136,-2.04531 1.46801,-2.49934 1.50805,-0.63011 2.21506,-0.48279 3.33546,0.69499 0.83142,0.87401 1.01737,1.26243 1.01737,2.12517 0,1.68233 -0.60175,2.78207 -1.87873,3.43354 -3.39937,1.73422 -7.14369,-1.29119 -6.15659,-4.97453 0.0877,-0.32743 0.32424,-0.59532 0.52555,-0.59532 0.20131,0 0.36602,-0.22189 0.36602,-0.49308 0,-0.68767 1.23965,-1.86957 2.59747,-2.47646 1.56499,-0.69948 2.9575,-0.44427 4.32706,0.79305 2.04406,1.84668 2.82989,3.99109 2.3251,6.34483 -0.33077,1.54234 -1.54971,2.93516 -3.27009,3.73657 -1.48481,0.69167 -2.16042,0.78369 -3.91828,0.53371 z"
       style="fill:#afd7e1;fill-opacity:1;stroke-width:0.264583" />
    <path
       transform="translate(-114.12587,-191.61034)"
       clip-path="url(#clipPath5831)"
       inkscape:connector-curvature="0"
       id="path10146-9-9"
       d="m 153.35723,297.4445 c -1.63846,-0.233 -3.27109,-0.95065 -3.9351,-1.72973 -0.23024,-0.27015 -0.69091,-1.14155 -1.02371,-1.93644 -1.53588,-3.66843 0.30251,-8.0734 4.36233,-10.45261 1.00085,-0.58654 1.54351,-0.71153 3.16203,-0.72829 1.63082,-0.0169 2.20548,0.10287 3.47588,0.72441 1.86901,0.91442 4.82849,3.79862 6.51114,6.3455 1.23053,1.86255 2.30353,3.00591 3.77743,4.02514 1.0576,0.73135 3.94903,1.66485 5.13422,1.65759 1.49716,-0.009 3.06808,-0.86835 3.90755,-2.13715 0.63733,-0.96329 0.743,-1.3834 0.73055,-2.9047 -0.0125,-1.52943 -0.1187,-1.91509 -0.75824,-2.75358 -1.1686,-1.53212 -2.16368,-2.03542 -3.78718,-1.9155 -1.55909,0.11517 -2.32211,0.63942 -2.89247,1.98735 -0.27972,0.66106 -0.30276,1.11169 -0.0961,1.87929 0.61908,2.29909 2.30431,3.04316 4.4197,1.95142 1.21736,-0.62828 1.52737,-1.45801 0.79502,-2.12776 -0.80726,-0.73824 -1.77757,-0.99734 -2.06082,-0.55031 -0.33433,0.52764 -0.28562,0.75592 0.16128,0.75592 0.21828,0 0.39687,0.16401 0.39687,0.36448 0,0.59268 -0.73457,1.03065 -1.43413,0.85507 -1.77695,-0.44598 -0.46695,-3.27263 1.5711,-3.39007 1.0489,-0.0604 2.51337,0.79756 2.88993,1.69314 0.51976,1.23613 0.0387,2.2477 -1.58754,3.33832 -1.16005,0.77798 -1.47122,0.86586 -2.76644,0.78135 -2.45016,-0.15986 -3.96896,-1.67853 -3.96023,-3.95988 0.0124,-3.23032 3.7728,-5.57887 7.08435,-4.42445 0.44972,0.15677 1.34629,0.92716 1.99238,1.71197 0.95684,1.16225 1.20812,1.69414 1.35472,2.86753 0.34289,2.74431 -0.83889,5.02172 -3.30027,6.35998 -1.15076,0.62567 -1.71326,0.76547 -2.94368,0.73156 -1.80232,-0.0497 -4.43519,-0.90006 -5.91165,-1.9094 -1.31197,-0.89689 -3.40447,-3.18084 -4.6302,-5.05385 -1.66989,-2.55171 -4.6883,-5.11191 -6.53107,-5.53963 -2.59256,-0.60176 -4.22537,-0.16177 -5.94791,1.60277 -2.19137,2.24477 -2.90005,5.34391 -1.80442,7.89078 0.32815,0.76282 0.94248,1.6332 1.36518,1.93418 0.87622,0.62393 3.73893,1.19513 4.73577,0.94494 1.02197,-0.2565 2.55546,-1.53644 3.04541,-2.5419 0.90052,-1.84799 -0.15234,-5.15076 -2.07021,-6.49407 -2.00766,-1.40623 -5.05929,0.75963 -5.0848,3.60887 -0.009,1.01296 0.12778,1.38434 0.74899,2.03275 1.53591,1.60314 4.19714,1.24949 4.54485,-0.60397 0.42222,-2.25063 -1.435,-3.94637 -2.98981,-2.72986 -0.5027,0.3933 -0.39552,1.45211 0.20807,2.05571 0.65798,0.65797 1.14885,0.42543 0.93133,-0.4412 -0.19173,-0.76398 0.43884,-1.12853 1.06015,-0.61289 0.96345,0.7996 -0.44707,2.90891 -1.68293,2.51666 -1.23258,-0.3912 -1.9057,-1.20451 -1.9057,-2.30257 0,-1.39603 0.38136,-2.04531 1.46802,-2.49934 1.50804,-0.63011 2.21505,-0.48279 3.33546,0.69499 0.83142,0.87401 1.01737,1.26243 1.01737,2.12517 0,1.68233 -0.60176,2.78207 -1.87874,3.43354 -3.39937,1.73422 -7.14369,-1.29119 -6.15659,-4.97453 0.0877,-0.32743 0.32424,-0.59532 0.52555,-0.59532 0.20131,0 0.36602,-0.22189 0.36602,-0.49308 0,-0.68767 1.23965,-1.86957 2.59747,-2.47646 1.56499,-0.69948 2.9575,-0.44427 4.32707,0.79305 2.04406,1.84668 2.82989,3.99109 2.3251,6.34483 -0.33077,1.54234 -1.54971,2.93516 -3.2701,3.73657 -1.48481,0.69167 -2.16042,0.78369 -3.91828,0.53371 z"
       style="fill:#afd7e1;fill-opacity:1;stroke-width:0.264583" />
    <path
       transform="translate(-115.03755,-191.61034)"
       clip-path="url(#clipPath5827)"
       inkscape:connector-curvature="0"
       id="path10146-9-1"
       d="m 191.23344,298.76193 c -1.63846,-0.233 -3.27109,-0.95065 -3.9351,-1.72973 -0.23024,-0.27015 -0.69091,-1.14155 -1.02371,-1.93644 -1.53588,-3.66843 0.30251,-8.0734 4.36233,-10.45261 1.00085,-0.58654 1.54351,-0.71153 3.16203,-0.72829 1.63082,-0.0169 2.20547,0.10287 3.47587,0.72441 1.86901,0.91442 4.82849,3.79862 6.51114,6.3455 1.23053,1.86255 2.30353,3.00591 3.77743,4.02514 1.0576,0.73135 3.94903,1.66485 5.13422,1.65759 1.49716,-0.009 3.06808,-0.86835 3.90755,-2.13715 0.63733,-0.96329 0.743,-1.3834 0.73056,-2.9047 -0.0125,-1.52943 -0.1187,-1.91509 -0.75825,-2.75358 -1.1686,-1.53212 -2.16368,-2.03542 -3.78717,-1.9155 -1.5591,0.11517 -2.32212,0.63942 -2.89248,1.98735 -0.27972,0.66106 -0.30276,1.11169 -0.0961,1.87929 0.61908,2.29909 2.30431,3.04316 4.4197,1.95142 1.21736,-0.62828 1.52738,-1.45801 0.79502,-2.12776 -0.80726,-0.73824 -1.77756,-0.99734 -2.06081,-0.55031 -0.33433,0.52764 -0.28563,0.75592 0.16127,0.75592 0.21828,0 0.39687,0.16401 0.39687,0.36448 0,0.59268 -0.73457,1.03065 -1.43413,0.85507 -1.77695,-0.44598 -0.46695,-3.27263 1.5711,-3.39007 1.0489,-0.0604 2.51337,0.79756 2.88993,1.69314 0.51976,1.23613 0.0387,2.2477 -1.58754,3.33832 -1.16004,0.77798 -1.47122,0.86586 -2.76644,0.78135 -2.45016,-0.15986 -3.96896,-1.67853 -3.96023,-3.95988 0.0124,-3.23032 3.7728,-5.57887 7.08435,-4.42445 0.44972,0.15677 1.34629,0.92716 1.99239,1.71197 0.95683,1.16225 1.20811,1.69414 1.35472,2.86753 0.34288,2.74431 -0.8389,5.02172 -3.30027,6.35998 -1.15076,0.62567 -1.71327,0.76547 -2.94368,0.73156 -1.80233,-0.0497 -4.4352,-0.90006 -5.91166,-1.9094 -1.31197,-0.89689 -3.40447,-3.18084 -4.6302,-5.05385 -1.66989,-2.55171 -4.6883,-5.11191 -6.53107,-5.53963 -2.59256,-0.60176 -4.22536,-0.16177 -5.94791,1.60277 -2.19136,2.24477 -2.90004,5.34391 -1.80441,7.89078 0.32815,0.76282 0.94248,1.6332 1.36518,1.93418 0.87622,0.62393 3.73893,1.19513 4.73577,0.94494 1.02197,-0.2565 2.55545,-1.53644 3.0454,-2.5419 0.90052,-1.84799 -0.15234,-5.15076 -2.0702,-6.49407 -2.00766,-1.40623 -5.05929,0.75963 -5.0848,3.60887 -0.009,1.01296 0.12778,1.38434 0.74899,2.03275 1.53591,1.60314 4.19714,1.24949 4.54485,-0.60397 0.42222,-2.25063 -1.435,-3.94637 -2.98982,-2.72986 -0.50269,0.3933 -0.39551,1.45211 0.20808,2.05571 0.65798,0.65797 1.14885,0.42543 0.93133,-0.4412 -0.19174,-0.76398 0.43884,-1.12853 1.06014,-0.61289 0.96346,0.7996 -0.44706,2.90891 -1.68292,2.51666 -1.23258,-0.3912 -1.9057,-1.20451 -1.9057,-2.30257 0,-1.39603 0.38136,-2.04531 1.46801,-2.49934 1.50805,-0.63011 2.21506,-0.48279 3.33546,0.69499 0.83142,0.87401 1.01737,1.26243 1.01737,2.12517 0,1.68233 -0.60175,2.78207 -1.87873,3.43354 -3.39937,1.73422 -7.14369,-1.29119 -6.15659,-4.97453 0.0877,-0.32743 0.32424,-0.59532 0.52555,-0.59532 0.20131,0 0.36602,-0.22189 0.36602,-0.49308 0,-0.68767 1.23965,-1.86957 2.59747,-2.47646 1.56499,-0.69948 2.9575,-0.44427 4.32706,0.79305 2.04406,1.84668 2.82989,3.99109 2.3251,6.34483 -0.33077,1.54234 -1.54971,2.93516 -3.27009,3.73657 -1.48481,0.69167 -2.16042,0.78369 -3.91828,0.53371 z"
       style="fill:#afd7e1;fill-opacity:1;stroke-width:0.264583" />
  </g>
</svg>
