<?xml version="1.0" encoding="UTF-8" standalone="no"?>
<svg
   xmlns:osb="http://www.openswatchbook.org/uri/2009/osb"
   xmlns:dc="http://purl.org/dc/elements/1.1/"
   xmlns:cc="http://creativecommons.org/ns#"
   xmlns:rdf="http://www.w3.org/1999/02/22-rdf-syntax-ns#"
   xmlns:svg="http://www.w3.org/2000/svg"
   xmlns="http://www.w3.org/2000/svg"
   xmlns:sodipodi="http://sodipodi.sourceforge.net/DTD/sodipodi-0.dtd"
   xmlns:inkscape="http://www.inkscape.org/namespaces/inkscape"
   inkscape:version="1.0 (4035a4fb49, 2020-05-01)"
   sodipodi:docname="header.svg"
   viewBox="0 0 800 428"
   height="428"
   width="800"
   id="svg1407"
   version="1.1">
  <metadata
     id="metadata1413">
    <rdf:RDF>
      <cc:Work
         rdf:about="">
        <dc:format>image/svg+xml</dc:format>
        <dc:type
           rdf:resource="http://purl.org/dc/dcmitype/StillImage" />
        <dc:title></dc:title>
      </cc:Work>
    </rdf:RDF>
  </metadata>
  <defs
     id="defs1411">
    <linearGradient
       gradientTransform="matrix(14.284829,0,0,13.313913,-2.6336306,-832.5123)"
       osb:paint="solid"
       id="linearGradient1125">
      <stop
         id="stop1123"
         offset="0"
         style="stop-color:#afd7e1;stop-opacity:1;" />
    </linearGradient>
    <linearGradient
       osb:paint="solid"
       id="linearGradient1149">
      <stop
         id="stop1147"
         offset="0"
         style="stop-color:#ffcc00;stop-opacity:1;" />
    </linearGradient>
    <clipPath
       id="clipPath5762"
       clipPathUnits="userSpaceOnUse">
      <rect
         transform="matrix(0.95028175,-0.31139137,0.36859849,0.9295887,0,0)"
         y="-1.4381515"
         x="0.32190844"
         height="118.87204"
         width="206.02139"
         id="rect5764"
         style="opacity:1;fill:#1a1a1a;fill-opacity:1;stroke:none;stroke-width:0.266769;stroke-opacity:0.392157" />
    </clipPath>
  </defs>
  <sodipodi:namedview
     showguides="false"
     inkscape:pagecheckerboard="false"
     inkscape:current-layer="g1415"
     inkscape:window-maximized="1"
     inkscape:window-y="-8"
     inkscape:window-x="-8"
     inkscape:cy="-17.215465"
     inkscape:cx="337.53561"
     inkscape:zoom="0.39187386"
     showgrid="false"
     id="namedview1409"
     inkscape:window-height="705"
     inkscape:window-width="1366"
     inkscape:pageshadow="2"
     inkscape:pageopacity="0.00784314"
     guidetolerance="10"
     gridtolerance="10"
     objecttolerance="10"
     borderopacity="1"
     bordercolor="#666666"
     pagecolor="#ffffff" />
  <g
     style="display:inline"
     id="g1415"
     inkscape:label="Image"
     inkscape:groupmode="layer">
    <rect
       clip-path="url(#clipPath5762)"
       transform="matrix(3.6013803,1.1466858,-1.4280115,3.4993731,-1.5868134,-4.09356)"
       y="78.796623"
       x="18.713097"
       height="105.61026"
       width="275.28979"
       id="rect4855"
       style="opacity:1;fill:url(#linearGradient1149);fill-opacity:1;stroke:#d56aea;stroke-width:0;stroke-miterlimit:4;stroke-dasharray:none;stroke-opacity:0.392157" />
    <path
       inkscape:connector-curvature="0"
       id="path10018"
       d="m 319.49091,370.9233 c -1.42668,-3.19845 -2.33377,-4.04355 -5.45145,-5.07891 -2.05693,-0.68317 -4.33073,-1.05258 -5.05282,-0.82099 -2.34876,0.75334 -2.15164,4.60486 0.33135,6.47316 2.81497,2.11811 2.29904,3.56083 -1.65752,4.6349 -6.0003,1.62886 -19.51209,-0.13228 -32.74051,-4.26739 -30.11622,-9.4141 -52.00876,-17.90352 -74.49002,-28.88549 -20.09972,-9.81862 -22.44736,-11.15971 -23.7246,-13.55286 -3.51568,-6.58726 -5.70124,-8.51212 -14.33864,-12.62832 -7.36483,-3.50973 -9.1373,-3.99755 -13.95472,-3.84039 -3.51341,0.11456 -6.07357,-0.3419 -7.0465,-1.25625 -1.8816,-1.76844 -8.84111,-2.34474 -10.51421,-0.87065 -0.67564,0.59527 -1.67432,2.58391 -2.21926,4.4192 -0.75309,2.53597 -0.45994,3.99575 1.22128,6.08222 2.06627,2.56403 2.49125,2.73271 6.43413,2.55327 3.73691,-0.17004 4.54437,0.11675 7.03094,2.49754 4.00775,3.83711 2.58131,5.73315 -2.67227,3.55213 -7.56174,-3.13926 -8.7351,-3.16575 -9.43291,-0.21309 -0.96321,4.0757 0.11316,5.81634 5.56379,8.99768 4.18928,2.44518 5.83511,2.89968 9.66684,2.67028 4.3492,-0.26052 4.76985,-0.5312 7.22617,-4.64915 2.37419,-3.98068 2.84843,-4.31426 5.28846,-3.72227 1.47415,0.35758 3.47996,0.80668 4.45733,0.99784 1.92251,0.3761 1.31196,2.87494 -0.74568,3.05202 -2.22273,0.19121 -3.67331,4.81648 -2.4879,7.93265 0.97722,2.569 1.86339,3.30511 5.55831,4.61693 7.78684,2.76472 12.84418,-0.89078 7.95599,-5.75062 -1.34889,-1.34105 -1.90953,-2.81393 -1.4257,-3.74573 0.7346,-1.41487 2.52414,-0.75374 22.76002,8.40882 51.88095,23.49115 62.95363,27.5254 96.14595,35.03022 15.43485,3.48986 22.88463,2.18528 27.42738,-4.80299 2.42026,-3.72314 2.48101,-4.25976 0.88678,-7.83376 z m -7.6018,10.81739 c -1.52231,0.7482 -4.36763,1.46113 -6.32287,1.58427 -8.50447,0.53567 -43.77108,-9.23872 -63.77402,-17.67545 -11.52535,-4.86107 -11.8843,-6.62395 -0.47321,-2.3212 3.60152,1.35791 9.74917,3.57511 13.66138,4.92715 3.91224,1.352 9.24601,3.19776 11.85286,4.10168 18.98617,6.58334 30.86835,9.02877 38.73836,7.97254 9.12713,-1.2249 12.59135,-6.48747 6.65399,-10.10812 -3.25211,-1.98314 -2.14447,-3.77602 1.53915,-2.49135 3.87271,1.35065 5.45541,6.94957 2.87548,10.17218 -1.09111,1.36294 -3.2294,3.09022 -4.75171,3.83842 z M 198.2976,347.08544 c -8.59169,-4.05775 -13.75561,-6.90015 -13.48444,-7.4224 0.26838,-0.51667 5.83706,1.76574 14.29604,5.85928 7.62118,3.68805 13.68915,7.02811 13.48447,7.42233 -0.20489,0.39429 -6.63791,-2.24239 -14.29607,-5.85921 z m -18.71953,-9.11775 c -2.35675,-1.48055 -4.90033,-2.35178 -6.79178,-2.32638 -1.72553,0.0219 -3.69567,-0.60695 -4.58831,-1.46756 -3.07557,-2.96533 -11.96988,-5.37465 -14.43142,-3.90924 -0.58615,0.34881 -1.62259,2.1978 -2.30365,4.10868 -1.04164,2.92329 -1.68627,3.52455 -4.06309,3.79055 -3.65481,0.40896 -10.65348,-1.98872 -12.27426,-4.20502 -2.18362,-2.98601 -0.56654,-3.47517 4.0702,-1.23129 4.88966,2.36622 9.09595,1.8709 10.72295,-1.26268 1.72354,-3.31944 -7.24657,-11.61125 -12.41667,-11.47773 -3.98641,0.10291 -5.81713,-1.76739 -4.67705,-4.77836 0.70154,-1.85272 1.2658,-2.31981 1.96104,-1.62252 0.5368,0.53846 0.44854,1.76369 -0.19582,2.72271 -1.71655,2.55447 0.72253,3.17528 3.33429,0.84876 1.9225,-1.71254 2.59323,-1.75253 4.76771,-0.28426 2.03348,1.3732 3.05665,1.41385 5.20951,0.20689 6.58038,-3.68903 22.88887,5.07617 25.26117,13.57694 0.4156,1.48964 1.81966,3.18944 3.17659,3.84608 3.05848,1.48008 7.53251,4.81758 7.23252,5.3953 -0.12457,0.23974 -1.9218,-0.62928 -3.99408,-1.9311 z m -13.13721,7.94433 c -2.41393,-1.16818 -2.96036,-4.57296 -0.92818,-5.78281 1.02579,-0.61066 1.34688,-0.25579 1.3968,1.54408 0.0355,1.28537 0.87881,2.73107 1.87403,3.2126 0.99506,0.48154 1.35896,1.14358 0.80864,1.47124 -0.55023,0.32765 -1.96848,0.12734 -3.1514,-0.44511 z"
       style="fill:url(#linearGradient1125);fill-opacity:1;stroke-width:0.982556" />
    <path
       clip-path="none"
       inkscape:connector-curvature="0"
       id="path10065-0"
       d="m 715.17545,401.77442 c 4.19659,-1.61594 5.35502,-3.49187 3.21509,-5.20645 -1.12324,-0.89995 -1.76376,-0.91711 -2.64053,-0.0703 -2.57741,2.48825 -6.22802,-0.0378 -9.84476,-6.80867 -2.94826,-5.52045 -3.65927,-4.61748 10.74871,-13.65078 l 4.38845,-2.75139 4.5428,3.71679 c 6.66308,5.45156 11.49498,8.02738 15.09207,8.04533 4.80007,0.0265 8.31511,-1.57731 8.31511,-3.78795 0,-2.87078 -3.0299,-4.02622 -7.26633,-2.77104 -3.18474,0.94363 -3.88758,0.80791 -6.48132,-1.25178 -1.60007,-1.27064 -4.10045,-3.77854 -5.55648,-5.57318 l -2.64725,-3.26292 2.12591,-2.88232 c 1.16927,-1.58527 4.09663,-4.02688 6.50532,-5.42583 3.37376,-1.95946 4.64844,-3.43023 5.55103,-6.40519 1.31921,-4.3479 2.28431,-5.27375 5.51905,-5.29499 3.89254,-0.0257 1.74014,-3.84815 -2.19998,-3.90716 -1.12751,-0.0181 -2.92351,-0.66857 -3.99111,-1.44814 -2.64544,-1.93173 -7.90473,-1.7861 -9.82601,0.2722 -0.86733,0.92921 -1.89007,2.90034 -2.27267,4.3803 l -0.69566,2.69083 -8.59374,-0.2773 -8.5937,-0.27731 -0.68058,-3.22417 c -0.61973,-2.93596 -0.42206,-3.31116 2.21144,-4.19746 1.59065,-0.53532 2.89202,-1.33503 2.89202,-1.77713 0,-0.44212 0.97651,-0.94267 2.17005,-1.11234 2.35174,-0.33422 6.24862,-6.0688 5.46452,-8.04142 -0.56652,-1.4253 -5.61944,-2.29029 -8.22482,-1.40798 -1.01552,0.34372 -2.57983,1.88962 -3.47622,3.43497 -1.32446,2.28322 -2.17357,2.74235 -4.53169,2.45044 -8.51063,-1.05363 -17.19829,-0.39013 -21.48994,1.64124 -4.92484,2.33113 -11.9119,10.63479 -11.9119,14.15664 0,1.18867 -0.9326,3.30587 -2.07258,4.70493 -1.68964,2.07374 -2.90276,2.54374 -6.56572,2.54374 -5.03335,0 -7.59118,-1.02276 -11.61169,-4.64294 -2.72293,-2.45186 -3.76804,-7.1861 -1.84026,-8.33636 1.60105,-0.95526 3.96337,0.52481 4.28179,2.68269 0.38272,2.59388 4.52123,3.45379 5.44445,1.13128 1.67135,-4.20498 -5.18423,-9.85091 -10.57383,-8.70806 -4.50724,0.9557 -7.06216,3.91599 -7.06216,8.18274 0,5.02965 3.62207,9.05419 10.32903,11.47683 7.55577,2.72921 11.47593,3.15532 17.45923,1.89775 l 5.28831,-1.11147 3.98026,4.24606 c 2.44864,2.61213 3.75341,4.81061 3.39073,5.71308 -1.56197,3.8866 -1.63412,10.56083 -0.14514,13.44211 1.53037,2.9616 1.50868,3.03364 -1.34252,4.45705 -4.39469,2.19397 -14.21594,3.26282 -26.73918,2.91004 -9.75005,-0.27477 -12.00778,-0.66183 -16.65165,-2.85528 -2.95472,-1.39566 -6.08652,-3.58991 -6.95947,-4.87616 -2.13948,-3.15231 -0.15118,-4.2548 2.35581,-1.3062 1.55237,1.82589 2.24837,2.04593 3.72204,1.17694 2.70615,-1.59579 2.67481,-3.58174 -0.10204,-6.47448 -5.04673,-5.25721 -13.03971,-2.20928 -13.03971,4.97231 0,6.9188 6.57396,11.57654 20.17047,14.29115 5.32289,1.06273 9.72548,1.33281 14.24405,0.87383 3.59702,-0.36548 9.24008,-0.90229 12.54006,-1.19313 6.22757,-0.54886 11.94093,-2.3865 20.61944,-6.63216 2.79368,-1.36671 5.16586,-2.34708 5.27161,-2.17863 0.10583,0.16857 1.4109,2.14329 2.90056,4.3886 1.48959,2.24526 2.70841,4.45874 2.70841,4.91879 0,1.24146 3.15447,3.76943 6.01274,4.81859 1.78503,0.65518 3.56583,0.51413 6.17034,-0.4888 z m -30.7951,-42.61456 c -0.443,-3.72286 -0.25285,-4.07698 3.32103,-6.18031 8.76227,-5.15702 14.21673,-6.38161 16.68703,-3.74639 1.49639,1.59632 1.48581,1.83568 -0.13795,3.13346 -0.96696,0.77282 -3.00495,2.00766 -4.52886,2.7441 -1.52391,0.73644 -5.07685,3.23939 -7.89551,5.56212 -5.70448,4.70089 -6.73107,4.49229 -7.44571,-1.51298 z"
       style="fill:url(#linearGradient1125);fill-opacity:0.9799;stroke-width:0.982556" />
    <path
       id="path1443"
       d="M 1.9438187,304.20763 403.34239,432.49967 1.6580038,427.55166 Z"
       style="fill:#ffffff;fill-opacity:0;stroke:none;stroke-width:0;stroke-linecap:butt;stroke-linejoin:miter;stroke-miterlimit:4;stroke-dasharray:none;stroke-opacity:1" />
    <rect
       y="3.8876374"
       x="5.8314562"
       height="360.57837"
       width="1103.1172"
       id="rect2006"
       style="fill:#000000;fill-opacity:0;stroke:none;stroke-width:0;stroke-miterlimit:4;stroke-dasharray:none;stroke-dashoffset:12.0945;paint-order:fill markers stroke" />
    <rect
       y="3.8876374"
       x="5.8314562"
       height="423.66403"
       width="790.51056"
       id="rect2011"
       style="fill:#ffffff;fill-opacity:0;stroke:none;stroke-width:0;stroke-miterlimit:4;stroke-dasharray:none;stroke-dashoffset:12.0945;paint-order:fill markers stroke" />
  </g>
</svg>
